<svg id="Layer_1" enable-background="new 0 0 510 510" height="512" viewBox="0 0 510 510" width="512" xmlns="http://www.w3.org/2000/svg"><g><g><g><path d="m255 0c-98.131 0-158.58 55.352-158.747 55.445 0 0-2.513 3.137-2.983 5.222-3.818 16.948-7.385 39.663-7.385 56.238 0 140.833 118.763 254.972 259.596 254.972 54.231 0 114.568-25.992 154.949-57.243.903-.699 3.769-5.396 3.769-5.396.178-1.087 5.8-23.477 5.8-54.239.001-140.832-114.166-254.999-254.999-254.999z" fill="#6ee1ff"/></g><g><g><path d="m462.851 402.768c19.601-27.52 33.904-59.168 41.348-93.53-43.559 34.696-98.724 55.441-158.741 55.441-140.833 0-255-114.167-255-255 0-18.615 2.007-36.753 5.795-54.234-58.644 46.72-96.253 118.747-96.253 199.555 0 55.08 17.465 106.08 47.157 147.768z" fill="#05cdff"/></g></g><g><g><path d="m196.601 286.541c0-20.645-16.736-37.38-37.38-37.38-4.119 0-8.077.676-11.783 1.906-8.402-14.413-24.015-24.107-41.902-24.107-23.467 0-43.037 16.674-47.515 38.821-4.116-2.052-8.755-3.213-13.667-3.213-16.942 0-30.677 13.734-30.677 30.677 0 16.942 13.734 30.677 30.677 30.677h121.969v-.682c17.246-3.319 30.278-18.484 30.278-36.699z" fill="#dafffb"/></g></g></g><g><g><path d="m502.035 66.7c0-20.645-16.736-37.38-37.38-37.38-4.119 0-8.077.676-11.783 1.906-8.402-14.413-24.015-24.107-41.902-24.107-23.467 0-43.037 16.675-47.515 38.821-4.116-2.052-8.755-3.213-13.667-3.213-16.942 0-30.677 13.734-30.677 30.677 0 16.942 13.734 30.677 30.677 30.677h121.969v-.682c17.246-3.319 30.278-18.483 30.278-36.699z" fill="#dafffb"/></g></g><path d="m46.065 401.226c46.118 65.774 122.505 108.774 208.935 108.774 85.879 0 162.603-42.688 208.94-108.774z" fill="#9bd069"/><g><g><path d="m255 71.965-53.751 39.363v314.073h213.175v-236.685z" fill="#fff"/></g></g><g><g><path d="m201.249 400.474h213.174v24.927h-213.174z" fill="#05cdff"/></g></g><g><path d="m315.779 116.475-60.779-44.51-159.423 116.751v236.685h109.981v-225.684z" fill="#e6dcdc"/></g><g><g><path d="m405.811 80.366h-45.919l-20.639 48.678 66.558 28.002z" fill="#d80a61"/></g></g><g><g><path d="m359.892 80.366h-20.639v48.678l20.639 8.683z" fill="#a51f6b"/></g></g><g><g><path d="m434.842 224.102-179.842-121.839-17.365-18.616 17.365-41.98 207.979 140.901z" fill="#dd542e"/></g></g><g><g><path d="m255 102.263-179.841 121.839-28.138-41.534 207.979-140.901z" fill="#d80a61"/></g></g><g><g><path d="m198.86 214.354h123.779v115.279h-123.779z" fill="#e6dcdc"/></g><g><path d="m197.361 194.94h115.279v115.279h-115.279z" fill="#2896ff"/></g><g><path d="m281.613 276.75c-31.833 0-57.639-25.806-57.639-57.639 0-5.761.856-11.32 2.429-16.569-8.572 4.91-20.071-6.058-25.154 2.398-5.203 8.656-3.888 36.802-3.888 47.639v57.639h57.639c15.346 0 39.313.779 49.639-9.001 7.217-6.836 2.642-22.297 5.571-32.069-8.429 4.828-18.186 7.602-28.597 7.602z" fill="#1e87dc"/></g><g><g><path d="m322.64 320.218-125.279-10-10-125.279h135.279zm-121.996-13.386 101.995-6.614v-95.278h-95.279z" fill="#f5f0f0"/></g></g><g><g><path d="m302.64 300.218h-95.279v-95.278l-20-20v135.278h135.279z" fill="#c8bec3"/></g></g><g><g fill="#f5f0f0"><path d="m248.5 268.199h13v32.019h-13z"/><path d="m248.5 213.695h13v38.303h-13z"/></g></g><g><g><path d="m248.5 204.94h13v9.415h-13z" fill="#c8bec3"/></g><g><path d="m248.5 251.966h13v16.694h-13z" fill="#c8bec3"/></g></g><g><g><path d="m207.361 246.079h98.277v13h-98.277z" fill="#f5f0f0"/></g></g></g><g><path d="m481.494 425.169h-221.933v-47.886h221.933c4.287 0 7.762 3.475 7.762 7.762v32.363c0 4.286-3.475 7.761-7.762 7.761z" fill="#ffe65a"/></g><g><path d="m329.231 425.401h-115.911c-4.287 0-7.762-3.475-7.762-7.762v-32.363c0-4.287 3.475-7.762 7.762-7.762h115.911z" fill="#df8621"/></g><g><path d="m460.852 436.676-158.212 5.899 5.197-99.253h153.015z" fill="#9bd069"/></g><g><path d="m307.837 436.676v-93.354h-73.875v115.809h226.89v-22.455z" fill="#57988b"/></g><g><path d="m259.746 365.777h30v70.899h-30z" fill="#ffe65a"/></g><g><path d="m308.187 365.777h30v70.899h-30z" fill="#ffe65a"/></g><g><path d="m356.627 365.777h30v70.899h-30z" fill="#ffe65a"/></g><path d="m171.511 431.714h-88.457v-83.449h65.893c12.462 0 22.564 10.102 22.564 22.564z" fill="#57988b"/></g></svg>