<?xml version="1.0" encoding="iso-8859-1"?>
<!-- Generator: Adobe Illustrator 19.0.0, SVG Export Plug-In . SVG Version: 6.00 Build 0)  -->
<svg version="1.1" id="Layer_1" xmlns="http://www.w3.org/2000/svg" xmlns:xlink="http://www.w3.org/1999/xlink" x="0px" y="0px"
	 viewBox="0 0 512 512" style="enable-background:new 0 0 512 512;" xml:space="preserve">
<path style="fill:#CCCCCC;" d="M440.534,458.744l2.708,26.322c6.482-4.122,11.898-10.017,15.379-17.325
	c6.116-12.836,5.205-26.99-0.985-38.397c-8.849-16.303-10.525-35.539-3.638-52.762l18.489-46.232
	c3.622-9.057,9.554-16.926,16.884-23.358c4.832-4.239,8.764-9.648,11.315-16.025c8.829-22.078-2.296-47.183-24.812-55.374
	l2.74,26.626c1.056,10.258-6.404,19.429-16.661,20.485l0,0c-10.258,1.056-19.429-6.404-20.485-16.661l-2.708-26.322
	c-6.482,4.122-11.898,10.017-15.379,17.325c-6.116,12.836-5.205,26.99,0.985,38.397c8.849,16.303,10.525,35.539,3.638,52.762
	l-11.679,29.204l-6.81,17.028c-3.622,9.057-9.554,16.926-16.884,23.358c-4.832,4.24-8.764,9.648-11.315,16.025
	c-4.707,11.77-3.743,24.4,1.595,34.869c5.451,10.692,21.705,5.816,20.476-6.122l0,0c-1.056-10.258,6.404-19.429,16.661-20.485
	C420.05,442.083,436.466,440.789,440.534,458.744"/>
<path style="fill:#5E86B7;" d="M394.317,395.064v102.758H147.581V395.064c0-27.141,15.461-50.683,38.052-62.295
	c9.587-4.923,20.441-7.696,31.951-7.696h106.742c11.511,0,22.365,2.784,31.951,7.696
	C378.868,344.392,394.317,367.923,394.317,395.064z"/>
<path style="fill:#527BA3;" d="M260.709,325.071H217.58c-38.658,0-69.998,31.339-69.998,69.998v102.747h43.129V395.069
	C190.712,356.41,222.051,325.071,260.709,325.071z"/>
<path style="fill:#F95428;" d="M356.277,332.768v165.053H185.633V332.768c9.586-4.923,20.441-7.696,31.951-7.696h106.742
	C335.836,325.072,346.69,327.856,356.277,332.768z"/>
<path style="fill:#E0B394;" d="M320.203,302.311v62.879c0,27.199-22.053,49.252-49.252,49.252
	c-27.208,0-49.252-22.053-49.252-49.252v-62.879H320.203z"/>
<path style="fill:#AF7C38;" d="M78.88,342.744h25.904l2.923,138.858c0.188,8.898-6.975,16.213-15.875,16.213l0,0
	c-8.901,0-16.063-7.315-15.875-16.213L78.88,342.744z"/>
<path style="fill:#F95428;" d="M23.607,220.739c-8.222,0-14.887,6.665-14.887,14.887s6.665,14.887,14.887,14.887h-2.724
	c0,29.47,17.97,54.739,43.549,65.457c5.307,2.224,8.774,7.399,8.774,13.153v13.814h37.249v-13.814
	c0-5.754,3.467-10.929,8.775-13.153c25.579-10.718,43.549-35.987,43.549-65.458l24.404-29.774L23.607,220.739L23.607,220.739z"/>
<path style="fill:#E54728;" d="M85.133,329.124v13.808H73.215v-13.808c0-5.761-3.475-10.933-8.783-13.152
	c-25.579-10.718-43.541-35.992-43.541-65.464h2.716c-8.217,0-14.883-6.666-14.883-14.883c0-8.217,6.666-14.883,14.883-14.883h35.833
	c-4.256,0-7.708,6.666-7.708,14.883c0,8.217,3.452,14.883,7.708,14.883h-1.403c0,29.473,9.304,54.746,22.557,65.464
	C83.345,318.191,85.133,323.363,85.133,329.124z"/>
<g>
	<path style="fill:#F95428;" d="M466.192,38.271L466.192,38.271c2.043,4.633,6.85,7.408,11.882,6.86l0,0
		c10.037-1.091,16.59,10.26,10.627,18.406l0,0c-2.99,4.085-2.99,9.636,0,13.72l0,0c5.964,8.147-0.59,19.498-10.627,18.406l0,0
		c-5.032-0.548-9.84,2.229-11.882,6.86l0,0c-4.073,9.238-17.18,9.238-21.253,0l0,0c-2.043-4.633-6.85-7.408-11.882-6.86l0,0
		c-10.037,1.091-16.59-10.26-10.627-18.406l0,0c2.99-4.085,2.99-9.636,0-13.72l0,0c-5.964-8.147,0.59-19.498,10.627-18.406l0,0
		c5.032,0.548,9.84-2.229,11.882-6.86l0,0C449.011,29.033,462.119,29.033,466.192,38.271z"/>
</g>
<g>
	<path style="fill:#E0B394;" d="M151.637,229.398c-14.035-0.623-25.206-12.201-25.206-26.383c0-14.578,11.816-26.405,26.405-26.405
		c1.313,0,2.603,0.091,3.871,0.283L151.637,229.398z"/>
	<path style="fill:#E0B394;" d="M390.247,229.398c14.035-0.623,25.217-12.201,25.217-26.383c0-14.578-11.827-26.405-26.417-26.405
		c-1.313,0-2.615,0.102-3.871,0.283L390.247,229.398z"/>
</g>
<path style="fill:#F7CBA4;" d="M232.748,343.537l-46.46-33.755c-24.551-17.837-37.833-47.335-34.914-77.542l8.059-83.39
	c5.55-57.434,53.814-101.259,111.516-101.259l0,0c57.701,0,105.965,43.825,111.516,101.259l8.059,83.39
	c2.919,30.207-10.362,59.703-34.914,77.542l-46.46,33.755C286.37,360.086,255.526,360.086,232.748,343.537z"/>
<path style="fill:#E0B394;" d="M180.286,248.673c-0.781,13.208,3.52,26.202,12.031,36.331l48.558,59.669
	c2.535,3.022,5.41,5.557,8.523,7.583c-5.84-2.037-11.454-4.957-16.649-8.726l-46.461-33.751
	c-24.549-17.837-37.825-47.333-34.905-77.541l8.047-83.392c5.501-56.874,52.878-100.403,109.843-101.23
	c-35.086,0.849-74.816,33.921-76.888,69.143L180.286,248.673z"/>
<path style="fill:#5E86B7;" d="M384.029,154.349c1.109,14.374-14.555,23.972-26.824,16.4c-52.72-32.596-119.792-32.596-172.512,0
	c-12.269,7.572-27.945-2.026-26.824-16.4l1.766-37.316c12.642-3.09,25.375-5.636,38.176-7.662
	c24.232-3.826,48.691-5.738,73.149-5.727c24.447,0,48.895,1.913,73.127,5.727c12.801,2.026,25.534,4.573,38.176,7.662
	L384.029,154.349z"/>
<path style="fill:#527BA3;" d="M270.949,14.185l-49.177,16.728c-12.065,4.108-20.961,19.671-21.912,38.346l-2.049,40.112
	c-12.801,2.026-25.534,4.573-38.176,7.662l3.678-47.763c1.437-18.686,14.906-34.249,33.196-38.357L270.949,14.185z"/>
<g>
	<path style="fill:#5E86B7;" d="M270.96,102.851v0.792c-24.459-0.011-48.917,1.901-73.149,5.727l2.049-40.112
		c0.951-18.675,9.847-34.237,21.912-38.346l49.177-16.728h0.011V102.851z"/>
	<path style="fill:#5E86B7;" d="M378.596,69.27l3.678,47.763h-0.011c-12.642-3.09-25.375-5.636-38.176-7.662l-2.037-40.112
		c-0.951-18.675-9.835-34.237-21.923-38.346l-49.143-16.717L345.4,30.913C363.69,35.021,377.147,50.584,378.596,69.27z"/>
	<path style="fill:#5E86B7;" d="M342.05,69.259l2.037,40.112c-24.232-3.814-48.679-5.727-73.127-5.727v-0.792V14.185l0.023,0.011
		l49.143,16.717C332.214,35.021,341.099,50.584,342.05,69.259z"/>
</g>
<path style="fill:#C0E7F9;" d="M63.94,144.499L63.94,144.499c-10.939-10.939-10.939-28.675,0-39.614l19.807-19.807l19.807,19.807
	c10.939,10.939,10.939,28.675,0,39.614l0,0C92.614,155.438,74.879,155.438,63.94,144.499z"/>
<path d="M507.542,254.576c-5.657-12.641-15.953-22.216-28.993-26.961c-2.747-1.001-5.816-0.516-8.122,1.282
	c-2.306,1.797-3.523,4.655-3.226,7.563l2.74,26.626c0.575,5.586-3.501,10.597-9.086,11.172c-2.704,0.277-5.357-0.514-7.468-2.23
	c-2.109-1.717-3.424-4.151-3.702-6.858l-2.71-26.322c-0.302-2.927-2.097-5.489-4.745-6.771c-2.65-1.281-5.771-1.102-8.254,0.478
	c-8.036,5.109-14.428,12.314-18.488,20.837c-7.139,14.984-6.522,32.531,1.655,46.939c7.692,13.555,8.678,29.895,2.704,44.831
	l-11.634,29.092c-1.741,4.353,0.377,9.293,4.73,11.034c4.354,1.74,9.292-0.376,11.034-4.73l11.634-29.092
	c7.9-19.756,6.551-41.447-3.702-59.514c-5.442-9.59-5.85-21.275-1.094-31.257c0.349-0.731,0.723-1.446,1.122-2.146l0.86,8.362
	c0.742,7.216,4.251,13.712,9.88,18.289c5.63,4.578,12.706,6.694,19.919,5.947c14.897-1.534,25.77-14.9,24.237-29.797l-0.941-9.133
	c2.521,2.695,4.6,5.82,6.155,9.293c3.763,8.409,3.952,17.751,0.532,26.305c-2.008,5.023-5.08,9.358-9.129,12.882
	c-8.502,7.402-15.154,16.71-19.235,26.915l-18.279,45.706c-7.9,19.754-6.551,41.446,3.702,59.514
	c5.442,9.59,5.85,21.275,1.094,31.257c-0.349,0.73-0.722,1.445-1.12,2.145l-0.86-8.36c-0.742-7.216-4.252-13.712-9.88-18.29
	c-5.627-4.577-12.693-6.689-19.919-5.947c-4.663,0.48-8.054,4.65-7.574,9.314c0.481,4.664,4.645,8.054,9.314,7.574
	c2.699-0.278,5.356,0.514,7.467,2.23c2.11,1.717,3.425,4.152,3.703,6.858l2.71,26.322c0.302,2.927,2.097,5.489,4.745,6.771
	c1.173,0.567,2.437,0.849,3.7,0.849c1.588,0,3.171-0.446,4.556-1.325c8.035-5.11,14.426-12.315,18.486-20.836
	c7.141-14.983,6.522-32.531-1.654-46.939c-7.693-13.556-8.678-29.896-2.705-44.831l18.279-45.706
	c3.085-7.714,8.14-14.775,14.62-20.416c6.014-5.237,10.769-11.94,13.746-19.384C513.482,281.261,513.197,267.218,507.542,254.576z"
	/>
<path d="M296.711,276.854c-6.944,6.944-16.176,10.768-25.997,10.768s-19.052-3.824-25.996-10.768c-3.316-3.315-8.69-3.315-12.005,0
	s-3.315,8.69,0,12.005c10.15,10.151,23.646,15.741,38.002,15.741c14.356,0,27.851-5.59,38.002-15.741
	c3.315-3.315,3.315-8.69-0.001-12.004C305.403,273.539,300.028,273.54,296.711,276.854z"/>
<path d="M220.331,202.083c-4.688,0-8.489,3.801-8.489,8.489v13.577c0,4.688,3.801,8.489,8.489,8.489
	c4.688,0,8.489-3.801,8.489-8.489v-13.577C228.819,205.884,225.019,202.083,220.331,202.083z"/>
<path d="M321.1,169.145c-9.598,0-18.622,3.738-25.409,10.525c-3.315,3.315-3.315,8.69,0.001,12.004
	c3.314,3.316,8.689,3.315,12.004,0c3.58-3.581,8.34-5.553,13.404-5.553c5.065,0,9.825,1.972,13.405,5.553
	c1.658,1.658,3.83,2.487,6.003,2.487c2.172,0,4.345-0.828,6.002-2.487c3.316-3.315,3.316-8.689,0.001-12.004
	C339.723,172.883,330.7,169.145,321.1,169.145z"/>
<path d="M233.736,191.675c1.657,1.657,3.83,2.487,6.002,2.487s4.345-0.828,6.002-2.487c3.315-3.315,3.315-8.69,0-12.004
	c-14.01-14.012-36.808-14.011-50.82,0c-3.315,3.315-3.315,8.69,0,12.004c3.315,3.315,8.69,3.315,12.004,0
	C214.319,184.283,226.344,184.284,233.736,191.675z"/>
<path d="M321.1,202.083c-4.689,0-8.489,3.801-8.489,8.489v13.577c0,4.688,3.799,8.489,8.489,8.489c4.689,0,8.489-3.801,8.489-8.489
	v-13.577C329.588,205.884,325.789,202.083,321.1,202.083z"/>
<path d="M368.26,330.079c-4.005-2.432-9.228-1.156-11.661,2.851c-2.432,4.008-1.156,9.229,2.852,11.661
	c16.372,9.94,26.147,27.281,26.147,46.392v98.344H364.53V360.098c0-4.688-3.799-8.489-8.489-8.489c-4.689,0-8.489,3.801-8.489,8.489
	v129.229h-16.566v-46.045c0-4.688-3.799-8.489-8.489-8.489H218.941c-4.688,0-8.489,3.801-8.489,8.489v46.045h-16.566V360.098
	c0-4.688-3.801-8.489-8.489-8.489c-4.688,0-8.489,3.801-8.489,8.489v129.229H155.84v-98.344c0-19.114,9.77-36.456,26.136-46.392
	c4.008-2.433,5.283-7.654,2.851-11.661c-2.432-4.008-7.652-5.283-11.661-2.851c-21.48,13.04-34.303,35.808-34.303,60.904v106.832
	c0,4.688,3.801,8.489,8.489,8.489h71.59h103.557h71.59c4.689,0,8.489-3.801,8.489-8.489V390.983
	C402.575,365.891,389.747,343.123,368.26,330.079z M227.43,489.327v-37.556h86.579v37.556H227.43z"/>
<path d="M312.174,364.499c0,22.858-18.598,41.455-41.456,41.455s-41.455-18.597-41.455-41.455c0-4.688-3.801-8.489-8.489-8.489
	s-8.489,3.801-8.489,8.489c0,32.219,26.213,58.432,58.432,58.432c32.221,0,58.433-26.213,58.433-58.432
	c0-4.688-3.799-8.489-8.489-8.489C315.974,356.01,312.174,359.811,312.174,364.499z"/>
<path d="M270.716,259.806c11.858,0,21.505-9.646,21.505-21.505v-36.218c0-4.688-3.8-8.489-8.489-8.489s-8.489,3.801-8.489,8.489
	v36.218c0,2.497-2.03,4.527-4.527,4.527c-2.497,0-4.527-2.03-4.527-4.527v-36.218c0-4.688-3.799-8.489-8.489-8.489
	c-4.688,0-8.489,3.801-8.489,8.489v36.218C249.211,250.159,258.858,259.806,270.716,259.806z"/>
<path d="M117.71,203.016c0,15.704,10.301,29.006,24.649,33.376c-1.345,31.33,13.191,61.725,38.71,80.259l46.46,33.75
	c12.915,9.385,28.046,14.076,43.183,14.075c15.135,0,30.275-4.693,43.192-14.074l46.463-33.751
	c25.515-18.54,40.045-48.938,38.698-80.261c14.35-4.371,24.652-17.671,24.652-33.374c0-17.949-13.629-32.771-31.084-34.68
	c0,0-0.201-12.215-0.366-14.501l-1.761-37.204c-0.005-0.085-0.026-0.164-0.032-0.248l0.028-0.002l-3.678-47.767
	c-1.749-22.549-17.742-41.028-39.799-45.983L272.817,5.96c-1.297-0.33-2.654-0.351-3.961-0.057l-74.438,16.728
	c-22.07,4.957-38.065,23.439-39.8,45.988l-3.678,47.763l0.017,0.001c-0.007,0.084-0.028,0.164-0.033,0.249l-1.76,37.199
	c-0.165,2.282-0.372,14.504-0.372,14.504C131.338,170.242,117.71,185.065,117.71,203.016z M134.687,203.016
	c0-7.952,5.212-14.703,12.398-17.037l-3.162,32.72C138.399,215.643,134.687,209.767,134.687,203.016z M279.216,26.043l37.946,12.908
	c8.615,2.928,15.42,15.857,16.177,30.739l1.513,29.796c-18.436-2.49-37.077-3.914-55.637-4.247V26.043z M224.273,38.95
	l37.966-12.915v69.199c-18.588,0.324-37.22,1.75-55.655,4.248l1.521-29.791C208.863,54.81,215.663,41.881,224.273,38.95z
	 M198.902,117.755c23.637-3.732,47.726-5.623,71.615-5.623c0.069,0,0.141,0,0.211,0c23.939,0,48.099,1.892,71.8,5.623
	c10.515,1.664,21.025,3.699,31.328,6.064l1.463,30.931c0.003,0.084,0.009,0.167,0.016,0.252c0.271,3.514-1.365,6.708-4.376,8.544
	c-2.993,1.822-6.553,1.814-9.521-0.017c-27.21-16.823-58.581-25.716-90.72-25.716s-63.51,8.893-90.714,25.713
	c-2.977,1.838-6.542,1.845-9.536,0.018c-3.008-1.836-4.64-5.025-4.368-8.535c0.007-0.086,0.012-0.172,0.017-0.259l1.463-30.931
	C177.882,121.454,188.391,119.419,198.902,117.755z M350.39,302.916l-46.461,33.75c-19.869,14.431-46.562,14.431-66.421,0
	l-46.462-33.751c-22.022-15.994-34.074-42.761-31.455-69.857l5.16-53.393c3.345,1.472,6.907,2.213,10.47,2.213
	c4.74,0,9.48-1.303,13.703-3.909c24.524-15.163,52.808-23.178,81.792-23.178c28.984,0,57.267,8.016,81.798,23.182
	c7.387,4.56,16.366,5.125,24.161,1.693l5.16,53.393C384.454,260.152,372.405,286.92,350.39,302.916z M406.743,203.016
	c0,6.75-3.712,12.627-9.24,15.681l-3.162-32.717C401.529,188.316,406.743,195.065,406.743,203.016z M369.9,69.922l2.792,36.254
	c-6.847-1.495-13.764-2.841-20.707-4.042l-1.692-33.308c-0.583-11.457-3.821-21.905-8.926-30.067l1.938,0.436
	C358.046,42.506,368.732,54.855,369.9,69.922z M171.545,69.921c1.159-15.066,11.846-27.414,26.594-30.727l1.935-0.435
	c-5.103,8.163-8.341,18.61-8.924,30.066l-1.701,33.309c-6.937,1.2-13.851,2.545-20.695,4.039L171.545,69.921z"/>
<path d="M270.714,310.542c-4.689,0-8.489,3.801-8.489,8.489v12.827c0,4.688,3.8,8.489,8.489,8.489s8.489-3.801,8.489-8.489V319.03
	C279.202,314.342,275.402,310.542,270.714,310.542z"/>
<path d="M143.154,299.979c-2.976-3.624-8.323-4.148-11.947-1.174c-4.697,3.856-9.908,6.998-15.49,9.336
	c-8.494,3.56-13.982,11.795-13.982,20.983v5.133H81.464v-5.133c0-9.187-5.489-17.423-13.982-20.983
	c-20.644-8.65-34.803-27.408-37.757-49.14h100.65c4.688,0,8.489-3.801,8.489-8.489c0-4.688-3.801-8.489-8.489-8.489H23.375
	c-3.528,0-6.398-2.87-6.398-6.398s2.87-6.397,6.398-6.397h78.703c4.688,0,8.489-3.801,8.489-8.489c0-4.688-3.801-8.489-8.489-8.489
	H23.375C10.486,212.25,0,222.737,0,235.626c0,8.912,5.016,16.669,12.371,20.612c2.124,29.768,20.703,55.894,48.548,67.563
	c2.167,0.908,3.566,2.997,3.566,5.324v13.814c0,3.634,2.289,6.726,5.499,7.936l-1.024,48.605c-0.098,4.687,3.621,8.567,8.309,8.665
	c4.689,0.084,8.567-3.622,8.665-8.309l1.02-48.41h9.289l2.745,130.356c0.043,2.003-0.706,3.895-2.109,5.326
	c-1.401,1.432-3.277,2.22-5.28,2.22c-2.003,0-3.879-0.788-5.281-2.22c-1.401-1.432-2.15-3.324-2.107-5.327l1.233-58.549
	c0.098-4.687-3.622-8.567-8.309-8.665c-4.72-0.091-8.567,3.622-8.665,8.309l-1.233,58.549c-0.139,6.604,2.33,12.842,6.952,17.561
	c4.621,4.72,10.804,7.319,17.411,7.319c6.606,0,12.788-2.6,17.411-7.319c4.621-4.72,7.091-10.957,6.952-17.561l-2.748-130.551
	c3.211-1.21,5.499-4.302,5.499-7.936v-13.814c0-2.327,1.4-4.416,3.566-5.324c7.101-2.976,13.73-6.971,19.702-11.874
	C145.604,308.95,146.129,303.602,143.154,299.979z"/>
<path d="M450.619,77.453c0.464,0.306,0.951,0.566,1.471,0.781c0.509,0.215,1.041,0.373,1.585,0.487
	c0.542,0.113,1.108,0.17,1.652,0.17c0.553,0,1.119-0.057,1.664-0.17c0.542-0.113,1.075-0.272,1.585-0.487
	c0.521-0.215,1.007-0.475,1.471-0.781c0.464-0.306,0.894-0.668,1.29-1.053c0.385-0.396,0.747-0.826,1.053-1.29
	c0.307-0.464,0.566-0.951,0.781-1.471c0.215-0.509,0.373-1.041,0.487-1.585c0.114-0.543,0.17-1.109,0.17-1.652
	c0-0.555-0.057-1.12-0.17-1.664c-0.113-0.543-0.271-1.075-0.487-1.585c-0.215-0.521-0.475-1.007-0.781-1.471
	c-0.306-0.464-0.668-0.894-1.053-1.29c-0.396-0.385-0.825-0.747-1.29-1.053c-0.465-0.306-0.951-0.566-1.471-0.781
	c-0.509-0.215-1.042-0.374-1.585-0.487c-1.098-0.215-2.23-0.215-3.316,0c-0.543,0.113-1.075,0.272-1.585,0.487
	c-0.521,0.215-1.007,0.475-1.471,0.781s-0.894,0.668-1.291,1.053c-0.385,0.396-0.746,0.826-1.053,1.29
	c-0.306,0.464-0.566,0.951-0.78,1.471c-0.215,0.509-0.373,1.041-0.488,1.585c-0.113,0.543-0.169,1.109-0.169,1.664
	c0,2.23,0.917,4.414,2.489,5.999C449.725,76.785,450.155,77.148,450.619,77.453z"/>
<path d="M414.159,94.169c4.043,7.001,11.557,10.805,19.583,9.934c1.369-0.147,2.646,0.593,3.197,1.846
	c3.261,7.396,10.309,11.992,18.393,11.992c8.086,0,15.132-4.595,18.394-11.992c0.551-1.253,1.84-1.993,3.197-1.846
	c8.038,0.873,15.54-2.933,19.583-9.934c4.042-7.001,3.587-15.402-1.188-21.927c-0.809-1.104-0.809-2.587,0-3.692
	c4.775-6.523,5.23-14.925,1.188-21.926s-11.539-10.805-19.583-9.933c-1.369,0.146-2.646-0.594-3.197-1.846l0,0
	c-3.262-7.396-10.309-11.992-18.394-11.992c-8.085,0-15.132,4.595-18.393,11.992c-0.552,1.253-1.843,1.992-3.197,1.846
	c-8.035-0.874-15.541,2.934-19.583,9.933c-4.042,7.001-3.587,15.403,1.19,21.927c0.808,1.104,0.808,2.587-0.001,3.692
	C410.572,78.767,410.117,87.168,414.159,94.169z M429.046,58.524c-1.047-1.431-0.565-2.75-0.184-3.409
	c0.38-0.659,1.265-1.735,3.045-1.545c8.738,0.953,17.015-3.82,20.566-11.874c0.715-1.622,2.098-1.864,2.859-1.864
	c0.762,0,2.146,0.242,2.86,1.864l0,0c3.553,8.054,11.82,12.825,20.567,11.874c1.762-0.192,2.664,0.885,3.045,1.545
	c0.38,0.659,0.862,1.978-0.183,3.408c-5.202,7.102-5.202,16.647-0.001,23.749c1.047,1.431,0.565,2.75,0.184,3.409
	c-0.38,0.659-1.268,1.736-3.045,1.545c-8.741-0.954-17.015,3.82-20.566,11.874c-0.715,1.622-2.098,1.864-2.86,1.864
	c-0.761,0-2.145-0.242-2.859-1.864c-3.251-7.373-10.45-11.994-18.357-11.994c-0.731,0-1.469,0.04-2.209,0.12
	c-1.754,0.187-2.664-0.885-3.045-1.545c-0.38-0.66-0.862-1.978,0.184-3.408C434.246,75.169,434.246,65.625,429.046,58.524z"/>
<path d="M83.515,161.174c9.345,0,18.694-3.558,25.809-10.673c6.894-6.894,10.691-16.059,10.691-25.809s-3.796-18.915-10.691-25.809
	L89.517,79.076c-3.315-3.315-8.69-3.315-12.004,0L57.706,98.883c-6.894,6.894-10.691,16.059-10.691,25.809
	s3.796,18.915,10.691,25.809C64.821,157.616,74.166,161.175,83.515,161.174z M69.71,110.887l13.805-13.805l13.805,13.805
	c3.687,3.687,5.718,8.59,5.718,13.805s-2.03,10.117-5.718,13.805c-7.613,7.613-19.997,7.613-27.61,0l0,0
	c-3.687-3.687-5.718-8.589-5.718-13.804S66.022,114.575,69.71,110.887z"/>
<g>
</g>
<g>
</g>
<g>
</g>
<g>
</g>
<g>
</g>
<g>
</g>
<g>
</g>
<g>
</g>
<g>
</g>
<g>
</g>
<g>
</g>
<g>
</g>
<g>
</g>
<g>
</g>
<g>
</g>
</svg>
